<?xml version="1.0" encoding="UTF-8"?>
<!-- Created with Inkscape (http://www.inkscape.org/) -->
<svg width="2406.3" height="400" version="1.1" viewBox="0 0 2406.3 400" xml:space="preserve" xmlns="http://www.w3.org/2000/svg" xmlns:cc="http://creativecommons.org/ns#" xmlns:dc="http://purl.org/dc/elements/1.1/" xmlns:rdf="http://www.w3.org/1999/02/22-rdf-syntax-ns#"><metadata><rdf:RDF><cc:Work rdf:about=""><dc:format>image/svg+xml</dc:format><dc:type rdf:resource="http://purl.org/dc/dcmitype/StillImage"/><dc:title/></cc:Work></rdf:RDF></metadata><defs><clipPath id="clipPath847"><path d="m0 500h500v-500h-500z"/></clipPath></defs><g transform="matrix(1.3333 0 0 -1.3333 -65.537 530.51)"><flowRoot fill="#000000" font-family="sans-serif" font-size="40px" letter-spacing="0px" word-spacing="0px" style="line-height:1.25" xml:space="preserve"><flowRegion><rect x="570.62" y="175.14" width="519.77" height="364.41"/></flowRegion><flowPara/></flowRoot><g transform="matrix(1.0501 0 0 -1.0501 -149.68 567.75)" aria-label="Team feedback"><g transform="matrix(.95228 0 0 -.95228 142.54 540.66)" style=""><g clip-path="url(#clipPath847)"><g transform="translate(-50.847 -2.1186)"><g transform="translate(196.6 284.84)"><path d="m0 0-30.169-30.17-45.014 45.014c-8.331 8.331-8.331 21.838 0 30.169s21.839 8.331 30.17 0z" fill="#ed2127"/></g><g transform="translate(121.63 271.63)"><path d="m0 0c11.947 0 21.632-9.685 21.632-21.632 0-11.948-9.685-21.632-21.632-21.632s-21.632 9.684-21.632 21.632c0 11.947 9.685 21.632 21.632 21.632" fill="#ed2127"/></g><g transform="translate(218.47 262.98)"><path d="m0 0-16.264 16.264-78.929-78.929c-8.332-8.331-8.332-21.839 0-30.17 8.331-8.331 21.838-8.331 30.169 0l65.024 65.023c7.68 7.68 7.68 20.132 0 27.812" fill="#f15c28"/></g><g transform="translate(262.98 218.47)"><path d="m0 0 16.264-16.264-78.93-78.929c-8.331-8.331-21.838-8.331-30.169 0s-8.331 21.839 0 30.17l65.023 65.023c7.681 7.68 20.132 7.68 27.812 0" fill="#cbdc3d"/></g><g transform="translate(271.63 121.63)"><path d="m0 0c0 11.947-9.685 21.633-21.632 21.633-11.948 0-21.633-9.686-21.633-21.633s9.685-21.632 21.633-21.632c11.947 0 21.632 9.685 21.632 21.632" fill="#97ca3c"/></g><g transform="translate(284.84 196.6)"><path d="m0 0-30.17-30.17 45.014-45.014c8.331-8.331 21.838-8.331 30.169 0s8.331 21.839 0 30.17z" fill="#97ca3c"/></g><g transform="translate(303.4 215.16)"><path d="m0 0 30.169 30.169 45.014-45.013c8.331-8.331 8.331-21.839 0-30.17s-21.839-8.331-30.17 0z" fill="#f68c2b"/></g><g transform="translate(378.37 228.37)"><path d="m0 0c-11.947 0-21.632 9.685-21.632 21.632s9.685 21.632 21.632 21.632 21.632-9.685 21.632-21.632-9.685-21.632-21.632-21.632" fill="#f68c2b"/></g><g transform="translate(281.53 237.02)"><path d="m0 0 16.264-16.264 78.929 78.93c8.332 8.331 8.332 21.838 0 30.169-8.331 8.331-21.838 8.331-30.169 0l-65.024-65.023c-7.68-7.681-7.68-20.132 0-27.812" fill="#fdb82b"/></g><g transform="translate(284.84 303.4)"><path d="m0 0-30.17 30.169 45.014 45.014c8.331 8.331 21.838 8.331 30.169 0s8.331-21.839 0-30.17z" fill="#46bbeb"/></g><g transform="translate(271.63 378.37)"><path d="m0 0c0-11.947-9.685-21.632-21.632-21.632-11.948 0-21.633 9.685-21.633 21.632s9.685 21.632 21.633 21.632c11.947 0 21.632-9.685 21.632-21.632" fill="#46bbeb"/></g><g transform="translate(262.98 281.53)"><path d="m0 0 16.264 16.264-78.93 78.929c-8.331 8.332-21.838 8.332-30.169 0-8.331-8.331-8.331-21.838 0-30.169l65.023-65.024c7.681-7.68 20.132-7.68 27.812 0" fill="#59caec"/></g></g></g></g><path transform="matrix(.71421 0 0 .71421 189.34 161.77)" d="m1340.2 99.779c-20.74 0-33.822 4.2893-39.248 12.865-5.1631 5.7756-7.7461 16.321-7.7461 31.635v9.1875h-20.476v26.385h20.871v115.38h37.279v-115.38h24.547v-26.385h-24.547v-12.076c0-2.8003 0.9182-5.338 2.7558-7.6133 1.9252-2.3628 5.3378-3.4563 10.238-3.2812 4.9881 0.08751 8.5326 0.26287 10.633 0.52539v-30.453c-3.3253-0.26258-5.9498-0.43793-7.875-0.52539-1.9252-0.17502-4.0688-0.26367-6.4316-0.26367zm-802.02 1.9688v34.26h58.15v159.22h40.691v-159.22h57.887v-34.26h-156.73zm1218 0.26367v68.258c-4.2005-6.7382-9.67-11.989-16.408-15.752-6.7382-3.8504-14.438-5.7754-23.102-5.7754-18.814 0-33.868 7.0005-45.156 21.002-11.201 14.001-16.801 33.21-16.801 57.625 0 21.177 5.6882 38.547 17.064 52.111 11.464 13.476 25.551 20.215 42.266 20.215 10.151 0 18.641-1.925 25.467-5.7754 6.8257-3.8504 12.906-10.021 18.244-18.51v19.822h36.361v-193.22h-37.936zm66.551 0v193.22h36.623v-17.984c4.988 7.0007 9.6261 11.903 13.914 14.703 7.1757 4.7255 16.671 7.0879 28.484 7.0879 18.815 0 33.472-7.3078 43.973-21.922s15.752-33.034 15.752-55.262c0-21.44-5.3376-38.942-16.014-52.506-10.589-13.564-25.291-20.346-44.106-20.346-10.414 0-18.99 2.187-25.728 6.5625-5.6882 3.5004-10.894 8.5758-15.619 15.227v-68.781h-37.279zm451.94 0.39258v192.83h36.754v-45.023l15.49-16.146 34.26 61.17h45.154l-51.98-87.686 50.012-54.736h-46.336l-46.6 53.818v-104.22h-36.754zm-1526.7 45.943c-20.04 0-36.36 6.6064-48.961 19.82-12.514 13.214-18.771 32.204-18.771 56.969 0 26.428 6.9571 45.504 20.871 57.23 13.914 11.726 29.972 17.59 48.174 17.59 22.052 0 39.204-6.9571 51.455-20.871 7.8758-8.7509 12.295-17.371 13.258-25.859h-38.197c-2.0127 4.2004-4.3318 7.483-6.957 9.8457-4.813 4.3755-11.071 6.5625-18.771 6.5625-7.2633 0-13.476-1.793-18.639-5.3809-8.4884-5.7756-12.994-15.84-13.52-30.191h97.922c0.17502-12.339-0.21904-21.79-1.1816-28.354-1.6627-11.201-5.2939-21.045-10.895-29.533-6.2132-9.626-14.088-16.67-23.627-21.133-9.5385-4.463-20.259-6.6953-32.16-6.6953zm681.52 0c-20.04 0-36.36 6.6064-48.961 19.82-12.514 13.214-18.77 32.204-18.77 56.969 0 26.428 6.9551 45.504 20.869 57.23 13.914 11.726 29.972 17.59 48.174 17.59 22.052 0 39.206-6.9571 51.457-20.871 7.8759-8.7509 12.295-17.371 13.258-25.859h-38.199c-2.0127 4.2004-4.3317 7.483-6.957 9.8457-4.8131 4.3755-11.069 6.5625-18.77 6.5625-7.2632 0-13.478-1.793-18.641-5.3809-8.4883-5.7756-12.994-15.84-13.52-30.191h97.924c0.175-12.339-0.219-21.79-1.1816-28.354-1.6627-11.201-5.2959-21.045-10.896-29.533-6.2132-9.626-14.088-16.67-23.627-21.133-9.5385-4.463-20.259-6.6953-32.16-6.6953zm145.44 0c-20.04 0-36.36 6.6064-48.961 19.82-12.514 13.214-18.772 32.204-18.772 56.969 0 26.428 6.957 45.504 20.871 57.23 13.914 11.726 29.972 17.59 48.174 17.59 22.052 0 39.204-6.9571 51.455-20.871 7.8758-8.7509 12.295-17.371 13.258-25.859h-38.197c-2.0127 4.2004-4.3317 7.483-6.957 9.8457-4.8131 4.3755-11.071 6.5625-18.772 6.5625-7.2632 0-13.476-1.793-18.639-5.3809-8.4883-5.7756-12.994-15.84-13.52-30.191h97.922c0.175-12.339-0.219-21.79-1.1817-28.354-1.6626-11.201-5.2939-21.045-10.894-29.533-6.2132-9.626-14.088-16.67-23.627-21.133-9.5385-4.463-20.259-6.6953-32.16-6.6953zm-681.65 0.39453c-24.065 0-41.041 6.299-50.93 18.9-6.2132 8.0508-9.7144 18.334-10.502 30.848h36.098c0.87509-5.5131 2.6267-9.8891 5.252-13.127 3.6754-4.3755 9.9311-6.5625 18.77-6.5625 7.8758 0 13.826 1.1369 17.852 3.4121 4.1129 2.1877 6.1699 6.213 6.1699 12.076 0 4.813-2.6698 8.3576-8.0078 10.633-2.9753 1.3126-7.9188 2.4062-14.832 3.2812l-12.732 1.5762c-14.439 1.8377-25.378 4.8995-32.816 9.1875-13.564 7.8758-20.346 20.61-20.346 38.199 0 13.564 4.2007 24.064 12.602 31.502 8.4884 7.3508 19.209 11.027 32.16 11.027 10.151 0 19.252-2.319 27.303-6.957 6.7382-3.9379 12.689-8.708 17.852-14.309 0.26253 3.2378 0.61323 6.1263 1.0508 8.6641s1.2237 5.2509 2.3613 8.1387h40.693v-5.5137c-2.4503-1.1376-4.2885-2.5818-5.5137-4.332-1.2251-1.7502-1.9699-5.076-2.2324-9.9766-0.17501-6.4757-0.26171-11.989-0.26171-16.539v-65.631c-1e-5 -17.239-6.0823-28.967-18.246-35.18s-26.078-9.3184-41.742-9.3184zm1147.2 0c-24.065 0-41.043 6.299-50.932 18.9-6.2132 8.0508-9.7125 18.334-10.5 30.848h36.098c0.875-5.5131 2.6247-9.8891 5.25-13.127 3.6753-4.3755 9.933-6.5625 18.771-6.5625 7.8759 0 13.826 1.1369 17.852 3.4121 4.1129 2.1877 6.168 6.213 6.168 12.076 0 4.813-2.6679 8.3576-8.0059 10.633-2.9753 1.3126-7.9207 2.4062-14.834 3.2812l-12.732 1.5762c-14.439 1.8377-25.376 4.8995-32.814 9.1875-13.564 7.8758-20.348 20.61-20.348 38.199 0 13.564 4.2007 24.064 12.602 31.502 8.4884 7.3508 19.209 11.027 32.16 11.027 10.151 0 19.252-2.319 27.303-6.957 6.7383-3.9379 12.688-8.708 17.852-14.309 0.2625 3.2378 0.6132 6.1263 1.0508 8.6641 0.4375 2.5378 1.2256 5.2509 2.3633 8.1387h40.691v-5.5137c-2.4503-1.1376-4.2886-2.5818-5.5137-4.332-1.2251-1.7502-1.9679-5.076-2.2305-9.9766-0.175-6.4757-0.2636-11.989-0.2636-16.539v-65.631c0-17.239-6.0804-28.967-18.244-35.18s-26.078-9.3184-41.742-9.3184zm148.59 0c-21.09 0-37.628 6.8251-49.617 20.477-11.989 13.651-17.984 32.771-17.984 57.361 0 21.79 5.4262 39.511 16.277 53.162 10.851 13.651 27.784 20.479 50.799 20.479 23.015 0 40.385-8.1826 52.111-24.547 7.3508-10.151 11.465-20.915 12.34-32.291h-38.197c-0.7876 7.5258-3.0199 13.651-6.6953 18.377-3.6754 4.7255-9.8878 7.0879-18.639 7.0879-12.339 0-20.74-5.9503-25.203-17.852-2.4503-6.3882-3.6758-14.833-3.6758-25.334 0-11.026 1.2255-19.865 3.6758-26.516 4.638-12.514 13.258-18.771 25.859-18.771 8.8384 0 15.358 2.8884 19.559 8.6641 2.8878 4.288 4.6807 9.1014 5.3808 14.439h38.33c-2.1002-20.39-8.8839-34.609-20.348-42.66-11.376-8.0509-26.033-12.076-43.973-12.076zm-1129.7 0.26172c-11.551 0-20.959 2.7998-28.223 8.4004-4.113 3.1503-8.489 8.4445-13.127 15.883v-20.871h-36.359v142.82h37.936v-86.109c0-7.7883 1.0068-13.652 3.0195-17.59 3.6754-6.9132 10.849-10.369 21.525-10.369 9.1885 0 15.359 3.4559 18.51 10.369 1.7502 3.8504 2.625 10.019 2.625 18.508v85.191h37.672v-85.191c0-6.3882 1.0068-11.858 3.0195-16.408 3.9379-8.5759 11.07-12.863 21.396-12.863 8.9259 0 15.052 3.3259 18.377 9.9766 1.7502 3.5004 2.625 7.9631 2.625 13.389v91.098h38.328l0.2636-90.18c0-9.276-0.4374-16.32-1.3125-21.133-1.4001-7.2633-4.1132-13.389-8.1386-18.377-4.9881-6.1256-10.544-10.413-16.67-12.863-6.1256-2.4503-12.34-3.6758-18.641-3.6758-9.451 0-18.026 1.9683-25.727 5.9062-7.2632 3.9379-13.345 10.109-18.246 18.51-2.8002-7.0007-6.9142-12.734-12.34-17.197-6.7382-4.813-15.575-7.2188-26.514-7.2188zm-311.49 30.191c7.9634 0 14.613 2.5811 19.951 7.7441 5.4256 5.0755 8.446 12.557 9.0586 22.445h-58.15c1.2251-9.276 4.2003-16.627 8.9258-22.053 4.813-5.4256 11.551-8.1367 20.215-8.1367zm681.52 0c7.9634 0 14.615 2.5811 19.953 7.7441 5.4256 5.0755 8.4439 12.557 9.0567 22.445h-58.15c1.2251-9.276 4.2022-16.627 8.9277-22.053 4.8131-5.4256 11.55-8.1367 20.213-8.1367zm145.44 0c7.9634 0 14.613 2.5811 19.951 7.7441 5.4255 5.0755 8.4459 12.557 9.0586 22.445h-58.15c1.2251-9.276 4.2002-16.627 8.9257-22.053 4.8131-5.4256 11.552-8.1367 20.215-8.1367zm150.17 2.2305c7.1758 0 13.477 2.2757 18.902 6.8262 8.8384 7.5258 13.258 20.039 13.258 37.541 0 12.514-2.7564 22.708-8.2696 30.584-5.513 7.8758-13.566 11.814-24.154 11.814-10.588 0-18.507-3.9386-23.758-11.814-5.1631-7.9633-7.7441-18.552-7.7441-31.766 0-12.251 2.5377-22.489 7.6133-30.715 5.1631-8.3134 13.214-12.471 24.152-12.471zm165.65 0.26367c13.389 0 22.578 6.2991 27.566 18.9 2.6253 6.6507 3.9375 15.052 3.9375 25.203 0 12.689-2.6698 22.928-8.0078 30.717-5.3381 7.7883-12.819 11.682-22.445 11.682-11.114 0-19.383-4.0253-24.809-12.076-5.4256-8.0508-8.1387-18.202-8.1387-30.453 0-10.414 1.3122-18.902 3.9375-25.465 5.0756-12.339 14.395-18.508 27.959-18.508zm-974.9 43.973v13.914c-0.26253 12.514-3.8071 21.134-10.633 25.859-6.7382 4.7255-14.133 7.0879-22.184 7.0879-5.0755 0-9.4063-1.4009-12.994-4.2012-3.5004-2.8878-5.252-7.5259-5.252-13.914 0-7.1758 2.8884-12.47 8.6641-15.883 3.4129-2.0127 9.0578-3.719 16.934-5.1191l8.4004-1.5742c4.2004-0.78758 7.483-1.619 9.8457-2.4941 2.4503-0.9626 4.856-2.1881 7.2188-3.6758zm1147.2 0v13.914c-0.2626 12.514-3.8071 21.134-10.633 25.859-6.7382 4.7255-14.133 7.0879-22.184 7.0879-5.0755 0-9.4062-1.4009-12.994-4.2012-3.5004-2.8878-5.25-7.5259-5.25-13.914 0-7.1758 2.8865-12.47 8.6621-15.883 3.4129-2.0127 9.0577-3.719 16.934-5.1191l8.4004-1.5742c4.2004-0.78758 7.483-1.619 9.8457-2.4941 2.4502-0.9626 4.8559-2.1881 7.2187-3.6758z" stroke-width="1.4001"/></g></g></svg>
